<svg xmlns="http://www.w3.org/2000/svg" xmlns:xlink="http://www.w3.org/1999/xlink" width="800" height="542.75"><rect width="800" height="542.75" rx="0" ry="0" class="a"/><svg height="542.75" viewBox="0 0 80 54.275" width="800" xmlns="http://www.w3.org/2000/svg" xmlns:xlink="http://www.w3.org/1999/xlink"><style>@keyframes f{0%{transform:translateX(0)}.2%{transform:translateX(-80px)}12.8%{transform:translateX(-160px)}13.6%{transform:translateX(-240px)}14.9%{transform:translateX(-320px)}16.1%{transform:translateX(-400px)}18.4%{transform:translateX(-480px)}23.4%{transform:translateX(-560px)}28.2%{transform:translateX(-640px)}29.4%{transform:translateX(-720px)}31.2%{transform:translateX(-800px)}33.2%{transform:translateX(-880px)}38.2%{transform:translateX(-960px)}40.2%{transform:translateX(-1040px)}57.2%{transform:translateX(-1120px)}64.1%{transform:translateX(-1200px)}71%{transform:translateX(-1280px)}75.5%{transform:translateX(-1360px)}79.1%{transform:translateX(-1520px)}79.3%{transform:translateX(-1600px)}93.2%{transform:translateX(-1680px)}94.7%{transform:translateX(-1760px)}96.2%{transform:translateX(-1840px)}97.5%{transform:translateX(-1920px)}to{transform:translateX(-2000px)}}.a{fill:#282d35}.c{fill:#b9c0cb}</style><g font-size="1.67" font-family="Monaco,Consolas,Menlo,'Bitstream Vera Sans Mono','Powerline Symbols',monospace"><defs><symbol id="1"><text y="1.67" class="c">bash-3.2$</text></symbol><symbol id="2"><text y="1.67" class="c">bash-3.2$</text><text x="10.02" y="1.67" class="c">java</text></symbol><symbol id="3"><text y="1.67" class="c">bash-3.2$</text><text x="10.02" y="1.67" class="c">java</text><text x="15.03" y="1.67" class="c">-jar</text></symbol><symbol id="4"><text y="1.67" class="c">bash-3.2$</text><text x="10.02" y="1.67" class="c">java</text><text x="15.03" y="1.67" class="c">-jar</text><text x="20.04" y="1.67" class="c">pip-boy.jar</text><text x="32.064" y="1.67" class="c">HashCodeTest</text></symbol><symbol id="5"><text y="1.67" class="c">6738746</text></symbol><symbol id="6"><text y="1.67" class="c">bash-3.2$</text><text x="10.02" y="1.67" class="c">exit</text></symbol><symbol id="a"><path fill="transparent" d="M0 0h80v25H0z"/></symbol><symbol id="b"><path fill="#6f7683" d="M0 0h1.102v2.171H0z"/></symbol></defs><path class="a" d="M0 0h80v54.275H0z"/><g style="animation-duration:10.759517999999998s;animation-iteration-count:infinite;animation-name:f;animation-timing-function:steps(1,end)"><svg width="2080"><svg><use xlink:href="#a"/><use xlink:href="#b" x="-.004"/></svg><svg x="80"><use xlink:href="#a"/><use xlink:href="#b" x="9.996"/><use xlink:href="#1"/></svg><svg x="160"><use xlink:href="#a"/><use xlink:href="#b" x="10.996"/><text y="1.67" class="c">bash-3.2$</text><text x="10.02" y="1.67" class="c">j</text></svg><svg x="240"><use xlink:href="#a"/><use xlink:href="#b" x="11.996"/><text y="1.67" class="c">bash-3.2$</text><text x="10.02" y="1.67" class="c">ja</text></svg><svg x="320"><use xlink:href="#a"/><use xlink:href="#b" x="12.996"/><text y="1.67" class="c">bash-3.2$</text><text x="10.02" y="1.67" class="c">jav</text></svg><svg x="400"><use xlink:href="#a"/><use xlink:href="#b" x="13.996"/><use xlink:href="#2"/></svg><svg x="480"><use xlink:href="#a"/><use xlink:href="#b" x="14.996"/><use xlink:href="#2"/></svg><svg x="560"><use xlink:href="#a"/><use xlink:href="#b" x="15.996"/><text y="1.67" class="c">bash-3.2$</text><text x="10.02" y="1.67" class="c">java</text><text x="15.03" y="1.67" class="c">-</text></svg><svg x="640"><use xlink:href="#a"/><use xlink:href="#b" x="16.996"/><text y="1.67" class="c">bash-3.2$</text><text x="10.02" y="1.67" class="c">java</text><text x="15.03" y="1.67" class="c">-j</text></svg><svg x="720"><use xlink:href="#a"/><use xlink:href="#b" x="17.996"/><text y="1.67" class="c">bash-3.2$</text><text x="10.02" y="1.67" class="c">java</text><text x="15.03" y="1.67" class="c">-ja</text></svg><svg x="800"><use xlink:href="#a"/><use xlink:href="#b" x="18.996"/><use xlink:href="#3"/></svg><svg x="880"><use xlink:href="#a"/><use xlink:href="#b" x="19.996"/><use xlink:href="#3"/></svg><svg x="960"><use xlink:href="#a"/><use xlink:href="#b" x="20.996"/><text y="1.67" class="c">bash-3.2$</text><text x="10.02" y="1.67" class="c">java</text><text x="15.03" y="1.67" class="c">-jar</text><text x="20.04" y="1.67" class="c">p</text></svg><svg x="1040"><use xlink:href="#a"/><use xlink:href="#b" x="31.996"/><text y="1.67" class="c">bash-3.2$</text><text x="10.02" y="1.67" class="c">java</text><text x="15.03" y="1.67" class="c">-jar</text><text x="20.04" y="1.67" class="c">pip-boy.jar</text></svg><svg x="1120"><use xlink:href="#a"/><use xlink:href="#b" x="32.996"/><text y="1.67" class="c">bash-3.2$</text><text x="10.02" y="1.67" class="c">java</text><text x="15.03" y="1.67" class="c">-jar</text><text x="20.04" y="1.67" class="c">pip-boy.jar</text><text x="32.064" y="1.67" class="c">H</text></svg><svg x="1200"><use xlink:href="#a"/><use xlink:href="#b" x="44.996"/><text y="1.67" class="c">bash-3.2$</text><text x="10.02" y="1.67" class="c">java</text><text x="15.03" y="1.67" class="c">-jar</text><text x="20.04" y="1.67" class="c">pip-boy.jar</text><text x="32.064" y="1.67" class="c">HashCodeTest.</text></svg><svg x="1280"><use xlink:href="#a"/><use xlink:href="#b" x="43.996"/><use xlink:href="#4"/></svg><svg x="1360"><use xlink:href="#a"/><use xlink:href="#b" x="-.004" y="2.146"/><use xlink:href="#4"/></svg><svg x="1440"><use xlink:href="#a"/><use xlink:href="#b" x="6.996" y="2.146"/><use xlink:href="#4"/><use xlink:href="#5" y="2.171"/></svg><svg x="1520"><use xlink:href="#a"/><use xlink:href="#b" x="-.004" y="4.317"/><use xlink:href="#4"/><use xlink:href="#5" y="2.171"/></svg><svg x="1600"><use xlink:href="#a"/><use xlink:href="#b" x="9.996" y="4.317"/><use xlink:href="#4"/><use xlink:href="#5" y="2.171"/><use xlink:href="#1" y="4.342"/></svg><svg x="1680"><use xlink:href="#a"/><use xlink:href="#b" x="10.996" y="4.317"/><use xlink:href="#4"/><use xlink:href="#5" y="2.171"/><text y="6.012" class="c">bash-3.2$</text><text x="10.02" y="6.012" class="c">e</text></svg><svg x="1760"><use xlink:href="#a"/><use xlink:href="#b" x="11.996" y="4.317"/><use xlink:href="#4"/><use xlink:href="#5" y="2.171"/><text y="6.012" class="c">bash-3.2$</text><text x="10.02" y="6.012" class="c">ex</text></svg><svg x="1840"><use xlink:href="#a"/><use xlink:href="#b" x="12.996" y="4.317"/><use xlink:href="#4"/><use xlink:href="#5" y="2.171"/><text y="6.012" class="c">bash-3.2$</text><text x="10.02" y="6.012" class="c">exi</text></svg><svg x="1920"><use xlink:href="#a"/><use xlink:href="#b" x="13.996" y="4.317"/><use xlink:href="#4"/><use xlink:href="#5" y="2.171"/><use xlink:href="#6" y="4.342"/></svg><svg x="2000"><use xlink:href="#a"/><use xlink:href="#b" x="-.004" y="6.488"/><use xlink:href="#4"/><use xlink:href="#5" y="2.171"/><use xlink:href="#6" y="4.342"/></svg></svg></g></g></svg></svg>