<svg xmlns="http://www.w3.org/2000/svg" xmlns:xlink="http://www.w3.org/1999/xlink" width="800" height="542.75"><rect width="800" height="542.75" rx="0" ry="0" class="a"/><svg height="542.75" viewBox="0 0 80 54.275" width="800" xmlns="http://www.w3.org/2000/svg" xmlns:xlink="http://www.w3.org/1999/xlink"><style>@keyframes f{0%{transform:translateX(0)}.1%{transform:translateX(-80px)}3.4%{transform:translateX(-160px)}4.1%{transform:translateX(-240px)}4.7%{transform:translateX(-320px)}5.5%{transform:translateX(-400px)}6.5%{transform:translateX(-480px)}9.8%{transform:translateX(-560px)}12.5%{transform:translateX(-640px)}13.2%{transform:translateX(-720px)}14.3%{transform:translateX(-800px)}15.6%{transform:translateX(-880px)}20.9%{transform:translateX(-960px)}22.8%{transform:translateX(-1040px)}32.9%{transform:translateX(-1120px)}35.8%{transform:translateX(-1200px)}37%{transform:translateX(-1280px)}40.9%{transform:translateX(-1360px)}55.6%{transform:translateX(-1440px)}56.5%{transform:translateX(-1520px)}57.2%{transform:translateX(-1600px)}58.2%{transform:translateX(-1680px)}73.3%{transform:translateX(-1760px)}76.3%{transform:translateX(-1840px)}79.7%{transform:translateX(-1920px)}80.4%{transform:translateX(-2000px)}83.1%{transform:translateX(-2080px)}86%{transform:translateX(-2160px)}86.1%{transform:translateX(-2240px)}95.2%{transform:translateX(-2320px)}96.4%{transform:translateX(-2400px)}97.8%{transform:translateX(-2480px)}98.4%{transform:translateX(-2560px)}to{transform:translateX(-2640px)}}.a{fill:#282d35}.c{fill:#b9c0cb}</style><g font-size="1.67" font-family="Monaco,Consolas,Menlo,'Bitstream Vera Sans Mono','Powerline Symbols',monospace"><defs><symbol id="1"><text y="1.67" class="c">bash-3.2$</text></symbol><symbol id="2"><text y="1.67" class="c">bash-3.2$</text><text x="10.02" y="1.67" class="c">java</text></symbol><symbol id="3"><text y="1.67" class="c">bash-3.2$</text><text x="10.02" y="1.67" class="c">java</text><text x="15.03" y="1.67" class="c">-jar</text></symbol><symbol id="4"><text y="1.67" class="c">bash-3.2$</text><text x="10.02" y="1.67" class="c">java</text><text x="15.03" y="1.67" class="c">-jar</text><text x="20.04" y="1.67" class="c">pip-boy.jar</text><text x="32.064" y="1.67" class="c">-cp</text></symbol><symbol id="5"><text y="1.67" class="c">bash-3.2$</text><text x="10.02" y="1.67" class="c">java</text><text x="15.03" y="1.67" class="c">-jar</text><text x="20.04" y="1.67" class="c">pip-boy.jar</text><text x="32.064" y="1.67" class="c">-cp</text><text x="36.072" y="1.67" class="c">out</text></symbol><symbol id="6"><text y="1.67" class="c">bash-3.2$</text><text x="10.02" y="1.67" class="c">java</text><text x="15.03" y="1.67" class="c">-jar</text><text x="20.04" y="1.67" class="c">pip-boy.jar</text><text x="32.064" y="1.67" class="c">-cp</text><text x="36.072" y="1.67" class="c">out</text><text x="40.08" y="1.67" class="c">Poly</text></symbol><symbol id="7"><text y="1.67" class="c">I</text><text x="2.004" y="1.67" class="c">am</text><text x="5.01" y="1.67" class="c">B</text></symbol><symbol id="8"><text y="1.67" class="c">bash-3.2$</text><text x="10.02" y="1.67" class="c">exit</text></symbol><symbol id="a"><path fill="transparent" d="M0 0h80v25H0z"/></symbol><symbol id="b"><path fill="#6f7683" d="M0 0h1.102v2.171H0z"/></symbol></defs><path class="a" d="M0 0h80v54.275H0z"/><g style="animation-duration:16.12395s;animation-iteration-count:infinite;animation-name:f;animation-timing-function:steps(1,end)"><svg width="2720"><svg><use xlink:href="#a"/><use xlink:href="#b" x="-.004"/></svg><svg x="80"><use xlink:href="#a"/><use xlink:href="#b" x="9.996"/><use xlink:href="#1"/></svg><svg x="160"><use xlink:href="#a"/><use xlink:href="#b" x="10.996"/><text y="1.67" class="c">bash-3.2$</text><text x="10.02" y="1.67" class="c">j</text></svg><svg x="240"><use xlink:href="#a"/><use xlink:href="#b" x="11.996"/><text y="1.67" class="c">bash-3.2$</text><text x="10.02" y="1.67" class="c">ja</text></svg><svg x="320"><use xlink:href="#a"/><use xlink:href="#b" x="12.996"/><text y="1.67" class="c">bash-3.2$</text><text x="10.02" y="1.67" class="c">jav</text></svg><svg x="400"><use xlink:href="#a"/><use xlink:href="#b" x="13.996"/><use xlink:href="#2"/></svg><svg x="480"><use xlink:href="#a"/><use xlink:href="#b" x="14.996"/><use xlink:href="#2"/></svg><svg x="560"><use xlink:href="#a"/><use xlink:href="#b" x="15.996"/><text y="1.67" class="c">bash-3.2$</text><text x="10.02" y="1.67" class="c">java</text><text x="15.03" y="1.67" class="c">-</text></svg><svg x="640"><use xlink:href="#a"/><use xlink:href="#b" x="16.996"/><text y="1.67" class="c">bash-3.2$</text><text x="10.02" y="1.67" class="c">java</text><text x="15.03" y="1.67" class="c">-j</text></svg><svg x="720"><use xlink:href="#a"/><use xlink:href="#b" x="17.996"/><text y="1.67" class="c">bash-3.2$</text><text x="10.02" y="1.67" class="c">java</text><text x="15.03" y="1.67" class="c">-ja</text></svg><svg x="800"><use xlink:href="#a"/><use xlink:href="#b" x="18.996"/><use xlink:href="#3"/></svg><svg x="880"><use xlink:href="#a"/><use xlink:href="#b" x="19.996"/><use xlink:href="#3"/></svg><svg x="960"><use xlink:href="#a"/><use xlink:href="#b" x="20.996"/><text y="1.67" class="c">bash-3.2$</text><text x="10.02" y="1.67" class="c">java</text><text x="15.03" y="1.67" class="c">-jar</text><text x="20.04" y="1.67" class="c">p</text></svg><svg x="1040"><use xlink:href="#a"/><use xlink:href="#b" x="31.996"/><text y="1.67" class="c">bash-3.2$</text><text x="10.02" y="1.67" class="c">java</text><text x="15.03" y="1.67" class="c">-jar</text><text x="20.04" y="1.67" class="c">pip-boy.jar</text></svg><svg x="1120"><use xlink:href="#a"/><use xlink:href="#b" x="32.996"/><text y="1.67" class="c">bash-3.2$</text><text x="10.02" y="1.67" class="c">java</text><text x="15.03" y="1.67" class="c">-jar</text><text x="20.04" y="1.67" class="c">pip-boy.jar</text><text x="32.064" y="1.67" class="c">-</text></svg><svg x="1200"><use xlink:href="#a"/><use xlink:href="#b" x="33.996"/><text y="1.67" class="c">bash-3.2$</text><text x="10.02" y="1.67" class="c">java</text><text x="15.03" y="1.67" class="c">-jar</text><text x="20.04" y="1.67" class="c">pip-boy.jar</text><text x="32.064" y="1.67" class="c">-c</text></svg><svg x="1280"><use xlink:href="#a"/><use xlink:href="#b" x="34.996"/><use xlink:href="#4"/></svg><svg x="1360"><use xlink:href="#a"/><use xlink:href="#b" x="35.996"/><use xlink:href="#4"/></svg><svg x="1440"><use xlink:href="#a"/><use xlink:href="#b" x="36.996"/><text y="1.67" class="c">bash-3.2$</text><text x="10.02" y="1.67" class="c">java</text><text x="15.03" y="1.67" class="c">-jar</text><text x="20.04" y="1.67" class="c">pip-boy.jar</text><text x="32.064" y="1.67" class="c">-cp</text><text x="36.072" y="1.67" class="c">o</text></svg><svg x="1520"><use xlink:href="#a"/><use xlink:href="#b" x="37.996"/><text y="1.67" class="c">bash-3.2$</text><text x="10.02" y="1.67" class="c">java</text><text x="15.03" y="1.67" class="c">-jar</text><text x="20.04" y="1.67" class="c">pip-boy.jar</text><text x="32.064" y="1.67" class="c">-cp</text><text x="36.072" y="1.67" class="c">ou</text></svg><svg x="1600"><use xlink:href="#a"/><use xlink:href="#b" x="38.996"/><use xlink:href="#5"/></svg><svg x="1680"><use xlink:href="#a"/><use xlink:href="#b" x="39.996"/><use xlink:href="#5"/></svg><svg x="1760"><use xlink:href="#a"/><use xlink:href="#b" x="40.996"/><text y="1.67" class="c">bash-3.2$</text><text x="10.02" y="1.67" class="c">java</text><text x="15.03" y="1.67" class="c">-jar</text><text x="20.04" y="1.67" class="c">pip-boy.jar</text><text x="32.064" y="1.67" class="c">-cp</text><text x="36.072" y="1.67" class="c">out</text><text x="40.08" y="1.67" class="c">P</text></svg><svg x="1840"><use xlink:href="#a"/><use xlink:href="#b" x="41.996"/><text y="1.67" class="c">bash-3.2$</text><text x="10.02" y="1.67" class="c">java</text><text x="15.03" y="1.67" class="c">-jar</text><text x="20.04" y="1.67" class="c">pip-boy.jar</text><text x="32.064" y="1.67" class="c">-cp</text><text x="36.072" y="1.67" class="c">out</text><text x="40.08" y="1.67" class="c">Po</text></svg><svg x="1920"><use xlink:href="#a"/><use xlink:href="#b" x="42.996"/><text y="1.67" class="c">bash-3.2$</text><text x="10.02" y="1.67" class="c">java</text><text x="15.03" y="1.67" class="c">-jar</text><text x="20.04" y="1.67" class="c">pip-boy.jar</text><text x="32.064" y="1.67" class="c">-cp</text><text x="36.072" y="1.67" class="c">out</text><text x="40.08" y="1.67" class="c">Pol</text></svg><svg x="2000"><use xlink:href="#a"/><use xlink:href="#b" x="43.996"/><use xlink:href="#6"/></svg><svg x="2080"><use xlink:href="#a"/><use xlink:href="#b" x="-.004" y="2.146"/><use xlink:href="#6"/></svg><svg x="2160"><use xlink:href="#a"/><use xlink:href="#b" x="-.004" y="4.317"/><use xlink:href="#6"/><use xlink:href="#7" y="2.171"/></svg><svg x="2240"><use xlink:href="#a"/><use xlink:href="#b" x="9.996" y="4.317"/><use xlink:href="#6"/><use xlink:href="#7" y="2.171"/><use xlink:href="#1" y="4.342"/></svg><svg x="2320"><use xlink:href="#a"/><use xlink:href="#b" x="10.996" y="4.317"/><use xlink:href="#6"/><use xlink:href="#7" y="2.171"/><text y="6.012" class="c">bash-3.2$</text><text x="10.02" y="6.012" class="c">e</text></svg><svg x="2400"><use xlink:href="#a"/><use xlink:href="#b" x="11.996" y="4.317"/><use xlink:href="#6"/><use xlink:href="#7" y="2.171"/><text y="6.012" class="c">bash-3.2$</text><text x="10.02" y="6.012" class="c">ex</text></svg><svg x="2480"><use xlink:href="#a"/><use xlink:href="#b" x="12.996" y="4.317"/><use xlink:href="#6"/><use xlink:href="#7" y="2.171"/><text y="6.012" class="c">bash-3.2$</text><text x="10.02" y="6.012" class="c">exi</text></svg><svg x="2560"><use xlink:href="#a"/><use xlink:href="#b" x="13.996" y="4.317"/><use xlink:href="#6"/><use xlink:href="#7" y="2.171"/><use xlink:href="#8" y="4.342"/></svg><svg x="2640"><use xlink:href="#a"/><use xlink:href="#b" x="-.004" y="6.488"/><use xlink:href="#6"/><use xlink:href="#7" y="2.171"/><use xlink:href="#8" y="4.342"/></svg></svg></g></g></svg></svg>