<svg xmlns="http://www.w3.org/2000/svg" xmlns:xlink="http://www.w3.org/1999/xlink" width="1060" height="738.14"><rect width="1060" height="738.14" rx="0" ry="0" class="a"/><svg height="738.14" viewBox="0 0 106 73.814" width="1060" xmlns="http://www.w3.org/2000/svg" xmlns:xlink="http://www.w3.org/1999/xlink"><style>@keyframes f{0%{transform:translateX(0)}.1%{transform:translateX(-106px)}7.6%{transform:translateX(-212px)}8.1%{transform:translateX(-318px)}8.8%{transform:translateX(-424px)}9.5%{transform:translateX(-530px)}10.1%{transform:translateX(-636px)}13.8%{transform:translateX(-742px)}16.2%{transform:translateX(-848px)}16.8%{transform:translateX(-954px)}17.9%{transform:translateX(-1060px)}19%{transform:translateX(-1166px)}23.5%{transform:translateX(-1272px)}24.8%{transform:translateX(-1378px)}36.4%{transform:translateX(-1484px)}37.4%{transform:translateX(-1590px)}39.4%{transform:translateX(-1696px)}42.1%{transform:translateX(-1802px)}42.9%{transform:translateX(-1908px)}52.1%{transform:translateX(-2014px)}53%{transform:translateX(-2120px)}54.1%{transform:translateX(-2226px)}55.3%{transform:translateX(-2332px)}59%{transform:translateX(-2438px)}63.5%{transform:translateX(-2544px)}68.1%{transform:translateX(-2650px)}69.2%{transform:translateX(-2756px)}70.1%{transform:translateX(-2862px)}71%{transform:translateX(-2968px)}72%{transform:translateX(-3074px)}73%{transform:translateX(-3180px)}74.2%{transform:translateX(-3286px)}79.5%{transform:translateX(-3392px)}82.6%{transform:translateX(-3604px)}82.7%{transform:translateX(-3710px)}93.9%{transform:translateX(-3816px)}95.3%{transform:translateX(-3922px)}97.3%{transform:translateX(-4028px)}98.3%{transform:translateX(-4134px)}to{transform:translateX(-4240px)}}.a{fill:#282d35}.c{fill:#b9c0cb}</style><g font-size="1.67" font-family="Monaco,Consolas,Menlo,'Bitstream Vera Sans Mono','Powerline Symbols',monospace"><defs><symbol id="1"><text y="1.67" class="c">bash-3.2$</text></symbol><symbol id="2"><text y="1.67" class="c">bash-3.2$</text><text x="10.02" y="1.67" class="c">java</text></symbol><symbol id="3"><text y="1.67" class="c">bash-3.2$</text><text x="10.02" y="1.67" class="c">java</text><text x="15.03" y="1.67" class="c">-jar</text></symbol><symbol id="4"><text y="1.67" class="c">bash-3.2$</text><text x="10.02" y="1.67" class="c">java</text><text x="15.03" y="1.67" class="c">-jar</text><text x="20.04" y="1.67" class="c">pip-boy.jar</text><text x="32.064" y="1.67" class="c">-v</text></symbol><symbol id="5"><text y="1.67" class="c">bash-3.2$</text><text x="10.02" y="1.67" class="c">java</text><text x="15.03" y="1.67" class="c">-jar</text><text x="20.04" y="1.67" class="c">pip-boy.jar</text><text x="32.064" y="1.67" class="c">-v</text><text x="35.07" y="1.67" class="c">false</text></symbol><symbol id="6"><text y="1.67" class="c">bash-3.2$</text><text x="10.02" y="1.67" class="c">java</text><text x="15.03" y="1.67" class="c">-jar</text><text x="20.04" y="1.67" class="c">pip-boy.jar</text><text x="32.064" y="1.67" class="c">-v</text><text x="35.07" y="1.67" class="c">false</text><text x="41.082" y="1.67" class="c">ClassTest.class</text></symbol><symbol id="7"><text y="1.67" class="c">bash-3.2$</text><text x="10.02" y="1.67" class="c">java</text><text x="15.03" y="1.67" class="c">-jar</text><text x="20.04" y="1.67" class="c">pip-boy.jar</text><text x="32.064" y="1.67" class="c">-v</text><text x="35.07" y="1.67" class="c">false</text><text x="41.082" y="1.67" class="c">ClassTest</text></symbol><symbol id="8"><text y="1.67" class="c">ClassTest</text></symbol><symbol id="9"><text y="1.67" class="c">bash-3.2$</text><text x="10.02" y="1.67" class="c">exit</text></symbol><symbol id="a"><path fill="transparent" d="M0 0h106v34H0z"/></symbol><symbol id="b"><path fill="#6f7683" d="M0 0h1.102v2.171H0z"/></symbol></defs><path class="a" d="M0 0h106v73.814H0z"/><g style="animation-duration:14.916607s;animation-iteration-count:infinite;animation-name:f;animation-timing-function:steps(1,end)"><svg width="4346"><svg><use xlink:href="#a"/><use xlink:href="#b" x="-.004"/></svg><svg x="106"><use xlink:href="#a"/><use xlink:href="#b" x="9.996"/><use xlink:href="#1"/></svg><svg x="212"><use xlink:href="#a"/><use xlink:href="#b" x="10.996"/><text y="1.67" class="c">bash-3.2$</text><text x="10.02" y="1.67" class="c">j</text></svg><svg x="318"><use xlink:href="#a"/><use xlink:href="#b" x="11.996"/><text y="1.67" class="c">bash-3.2$</text><text x="10.02" y="1.67" class="c">ja</text></svg><svg x="424"><use xlink:href="#a"/><use xlink:href="#b" x="12.996"/><text y="1.67" class="c">bash-3.2$</text><text x="10.02" y="1.67" class="c">jav</text></svg><svg x="530"><use xlink:href="#a"/><use xlink:href="#b" x="13.996"/><use xlink:href="#2"/></svg><svg x="636"><use xlink:href="#a"/><use xlink:href="#b" x="14.996"/><use xlink:href="#2"/></svg><svg x="742"><use xlink:href="#a"/><use xlink:href="#b" x="15.996"/><text y="1.67" class="c">bash-3.2$</text><text x="10.02" y="1.67" class="c">java</text><text x="15.03" y="1.67" class="c">-</text></svg><svg x="848"><use xlink:href="#a"/><use xlink:href="#b" x="16.996"/><text y="1.67" class="c">bash-3.2$</text><text x="10.02" y="1.67" class="c">java</text><text x="15.03" y="1.67" class="c">-j</text></svg><svg x="954"><use xlink:href="#a"/><use xlink:href="#b" x="17.996"/><text y="1.67" class="c">bash-3.2$</text><text x="10.02" y="1.67" class="c">java</text><text x="15.03" y="1.67" class="c">-ja</text></svg><svg x="1060"><use xlink:href="#a"/><use xlink:href="#b" x="18.996"/><use xlink:href="#3"/></svg><svg x="1166"><use xlink:href="#a"/><use xlink:href="#b" x="19.996"/><use xlink:href="#3"/></svg><svg x="1272"><use xlink:href="#a"/><use xlink:href="#b" x="20.996"/><text y="1.67" class="c">bash-3.2$</text><text x="10.02" y="1.67" class="c">java</text><text x="15.03" y="1.67" class="c">-jar</text><text x="20.04" y="1.67" class="c">p</text></svg><svg x="1378"><use xlink:href="#a"/><use xlink:href="#b" x="31.996"/><text y="1.67" class="c">bash-3.2$</text><text x="10.02" y="1.67" class="c">java</text><text x="15.03" y="1.67" class="c">-jar</text><text x="20.04" y="1.67" class="c">pip-boy.jar</text></svg><svg x="1484"><use xlink:href="#a"/><use xlink:href="#b" x="32.996"/><text y="1.67" class="c">bash-3.2$</text><text x="10.02" y="1.67" class="c">java</text><text x="15.03" y="1.67" class="c">-jar</text><text x="20.04" y="1.67" class="c">pip-boy.jar</text><text x="32.064" y="1.67" class="c">-</text></svg><svg x="1590"><use xlink:href="#a"/><use xlink:href="#b" x="33.996"/><use xlink:href="#4"/></svg><svg x="1696"><use xlink:href="#a"/><use xlink:href="#b" x="34.996"/><use xlink:href="#4"/></svg><svg x="1802"><use xlink:href="#a"/><use xlink:href="#b" x="35.996"/><text y="1.67" class="c">bash-3.2$</text><text x="10.02" y="1.67" class="c">java</text><text x="15.03" y="1.67" class="c">-jar</text><text x="20.04" y="1.67" class="c">pip-boy.jar</text><text x="32.064" y="1.67" class="c">-v</text><text x="35.07" y="1.67" class="c">f</text></svg><svg x="1908"><use xlink:href="#a"/><use xlink:href="#b" x="36.996"/><text y="1.67" class="c">bash-3.2$</text><text x="10.02" y="1.67" class="c">java</text><text x="15.03" y="1.67" class="c">-jar</text><text x="20.04" y="1.67" class="c">pip-boy.jar</text><text x="32.064" y="1.67" class="c">-v</text><text x="35.07" y="1.67" class="c">fa</text></svg><svg x="2014"><use xlink:href="#a"/><use xlink:href="#b" x="37.996"/><text y="1.67" class="c">bash-3.2$</text><text x="10.02" y="1.67" class="c">java</text><text x="15.03" y="1.67" class="c">-jar</text><text x="20.04" y="1.67" class="c">pip-boy.jar</text><text x="32.064" y="1.67" class="c">-v</text><text x="35.07" y="1.67" class="c">fal</text></svg><svg x="2120"><use xlink:href="#a"/><use xlink:href="#b" x="38.996"/><text y="1.67" class="c">bash-3.2$</text><text x="10.02" y="1.67" class="c">java</text><text x="15.03" y="1.67" class="c">-jar</text><text x="20.04" y="1.67" class="c">pip-boy.jar</text><text x="32.064" y="1.67" class="c">-v</text><text x="35.07" y="1.67" class="c">fals</text></svg><svg x="2226"><use xlink:href="#a"/><use xlink:href="#b" x="39.996"/><use xlink:href="#5"/></svg><svg x="2332"><use xlink:href="#a"/><use xlink:href="#b" x="40.996"/><use xlink:href="#5"/></svg><svg x="2438"><use xlink:href="#a"/><use xlink:href="#b" x="41.996"/><text y="1.67" class="c">bash-3.2$</text><text x="10.02" y="1.67" class="c">java</text><text x="15.03" y="1.67" class="c">-jar</text><text x="20.04" y="1.67" class="c">pip-boy.jar</text><text x="32.064" y="1.67" class="c">-v</text><text x="35.07" y="1.67" class="c">false</text><text x="41.082" y="1.67" class="c">C</text></svg><svg x="2544"><use xlink:href="#a"/><use xlink:href="#b" x="56.996"/><use xlink:href="#6"/></svg><svg x="2650"><use xlink:href="#a"/><use xlink:href="#b" x="55.996"/><use xlink:href="#6"/></svg><svg x="2756"><use xlink:href="#a"/><use xlink:href="#b" x="54.996"/><text y="1.67" class="c">bash-3.2$</text><text x="10.02" y="1.67" class="c">java</text><text x="15.03" y="1.67" class="c">-jar</text><text x="20.04" y="1.67" class="c">pip-boy.jar</text><text x="32.064" y="1.67" class="c">-v</text><text x="35.07" y="1.67" class="c">false</text><text x="41.082" y="1.67" class="c">ClassTest.clas</text></svg><svg x="2862"><use xlink:href="#a"/><use xlink:href="#b" x="53.996"/><text y="1.67" class="c">bash-3.2$</text><text x="10.02" y="1.67" class="c">java</text><text x="15.03" y="1.67" class="c">-jar</text><text x="20.04" y="1.67" class="c">pip-boy.jar</text><text x="32.064" y="1.67" class="c">-v</text><text x="35.07" y="1.67" class="c">false</text><text x="41.082" y="1.67" class="c">ClassTest.cla</text></svg><svg x="2968"><use xlink:href="#a"/><use xlink:href="#b" x="52.996"/><text y="1.67" class="c">bash-3.2$</text><text x="10.02" y="1.67" class="c">java</text><text x="15.03" y="1.67" class="c">-jar</text><text x="20.04" y="1.67" class="c">pip-boy.jar</text><text x="32.064" y="1.67" class="c">-v</text><text x="35.07" y="1.67" class="c">false</text><text x="41.082" y="1.67" class="c">ClassTest.cl</text></svg><svg x="3074"><use xlink:href="#a"/><use xlink:href="#b" x="51.996"/><text y="1.67" class="c">bash-3.2$</text><text x="10.02" y="1.67" class="c">java</text><text x="15.03" y="1.67" class="c">-jar</text><text x="20.04" y="1.67" class="c">pip-boy.jar</text><text x="32.064" y="1.67" class="c">-v</text><text x="35.07" y="1.67" class="c">false</text><text x="41.082" y="1.67" class="c">ClassTest.c</text></svg><svg x="3180"><use xlink:href="#a"/><use xlink:href="#b" x="50.996"/><text y="1.67" class="c">bash-3.2$</text><text x="10.02" y="1.67" class="c">java</text><text x="15.03" y="1.67" class="c">-jar</text><text x="20.04" y="1.67" class="c">pip-boy.jar</text><text x="32.064" y="1.67" class="c">-v</text><text x="35.07" y="1.67" class="c">false</text><text x="41.082" y="1.67" class="c">ClassTest.</text></svg><svg x="3286"><use xlink:href="#a"/><use xlink:href="#b" x="49.996"/><use xlink:href="#7"/></svg><svg x="3392"><use xlink:href="#a"/><use xlink:href="#b" x="-.004" y="2.146"/><use xlink:href="#7"/></svg><svg x="3498"><use xlink:href="#a"/><use xlink:href="#b" x="-.004" y="4.317"/><use xlink:href="#7"/><use xlink:href="#8" y="2.171"/></svg><svg x="3604"><use xlink:href="#a"/><use xlink:href="#b" x="-.004" y="6.488"/><use xlink:href="#7"/><use xlink:href="#8" y="2.171"/><use xlink:href="#8" y="4.342"/></svg><svg x="3710"><use xlink:href="#a"/><use xlink:href="#b" x="9.996" y="6.488"/><use xlink:href="#7"/><use xlink:href="#8" y="2.171"/><use xlink:href="#8" y="4.342"/><use xlink:href="#1" y="6.513"/></svg><svg x="3816"><use xlink:href="#a"/><use xlink:href="#b" x="10.996" y="6.488"/><use xlink:href="#7"/><use xlink:href="#8" y="2.171"/><use xlink:href="#8" y="4.342"/><text y="8.183" class="c">bash-3.2$</text><text x="10.02" y="8.183" class="c">e</text></svg><svg x="3922"><use xlink:href="#a"/><use xlink:href="#b" x="11.996" y="6.488"/><use xlink:href="#7"/><use xlink:href="#8" y="2.171"/><use xlink:href="#8" y="4.342"/><text y="8.183" class="c">bash-3.2$</text><text x="10.02" y="8.183" class="c">ex</text></svg><svg x="4028"><use xlink:href="#a"/><use xlink:href="#b" x="12.996" y="6.488"/><use xlink:href="#7"/><use xlink:href="#8" y="2.171"/><use xlink:href="#8" y="4.342"/><text y="8.183" class="c">bash-3.2$</text><text x="10.02" y="8.183" class="c">exi</text></svg><svg x="4134"><use xlink:href="#a"/><use xlink:href="#b" x="13.996" y="6.488"/><use xlink:href="#7"/><use xlink:href="#8" y="2.171"/><use xlink:href="#8" y="4.342"/><use xlink:href="#9" y="6.513"/></svg><svg x="4240"><use xlink:href="#a"/><use xlink:href="#b" x="-.004" y="8.659"/><use xlink:href="#7"/><use xlink:href="#8" y="2.171"/><use xlink:href="#8" y="4.342"/><use xlink:href="#9" y="6.513"/></svg></svg></g></g></svg></svg>