<svg xmlns="http://www.w3.org/2000/svg" xmlns:xlink="http://www.w3.org/1999/xlink" width="840" height="602.75"><rect width="840" height="602.75" rx="5" ry="5" class="a"/><svg y="0%" x="0%"><circle cx="20" cy="20" r="6" fill="#ff5f58"/><circle cx="40" cy="20" r="6" fill="#ffbd2e"/><circle cx="60" cy="20" r="6" fill="#18c132"/></svg><svg height="542.75" viewBox="0 0 80 54.275" width="800" x="15" xmlns="http://www.w3.org/2000/svg" xmlns:xlink="http://www.w3.org/1999/xlink" y="50"><style>@keyframes i{0%{transform:translateX(0)}.07%{transform:translateX(-80px)}10.31%{transform:translateX(-160px)}10.89%{transform:translateX(-240px)}11.79%{transform:translateX(-320px)}12.28%{transform:translateX(-400px)}13.72%{transform:translateX(-480px)}23.06%{transform:translateX(-560px)}25.98%{transform:translateX(-640px)}26.52%{transform:translateX(-720px)}27.64%{transform:translateX(-800px)}28.59%{transform:translateX(-880px)}33.89%{transform:translateX(-960px)}35.18%{transform:translateX(-1040px)}36.45%{transform:translateX(-1120px)}37.89%{transform:translateX(-1200px)}42.69%{transform:translateX(-1280px)}44.89%{transform:translateX(-1360px)}45.61%{transform:translateX(-1440px)}46.78%{transform:translateX(-1520px)}48.48%{transform:translateX(-1600px)}53.78%{transform:translateX(-1680px)}55.13%{transform:translateX(-1760px)}56.84%{transform:translateX(-1840px)}57.87%{transform:translateX(-1920px)}59.22%{transform:translateX(-2000px)}60.07%{transform:translateX(-2080px)}60.97%{transform:translateX(-2160px)}61.78%{transform:translateX(-2240px)}70.45%{transform:translateX(-2320px)}71.78%{transform:translateX(-2400px)}71.8%{transform:translateX(-2480px)}82.26%{transform:translateX(-2560px)}84.28%{transform:translateX(-2640px)}85.67%{transform:translateX(-2720px)}87.65%{transform:translateX(-2800px)}to{transform:translateX(-2880px)}}.a{fill:#282d35}.f{fill:#b9c0cb}</style><g font-size="1.67" font-family="Monaco,Consolas,Menlo,'Bitstream Vera Sans Mono','Powerline Symbols',monospace"><defs><symbol id="1"><text y="1.67" class="f">bash-3.2$</text></symbol><symbol id="2"><text y="1.67" class="f">bash-3.2$</text><text x="10.02" y="1.67" class="f">java</text></symbol><symbol id="3"><text y="1.67" class="f">bash-3.2$</text><text x="10.02" y="1.67" class="f">java</text><text x="15.03" y="1.67" class="f">-jar</text></symbol><symbol id="4"><text y="1.67" class="f">bash-3.2$</text><text x="10.02" y="1.67" class="f">java</text><text x="15.03" y="1.67" class="f">-jar</text><text x="20.04" y="1.67" class="f">pip-boy.jar</text></symbol><symbol id="5"><text y="1.67" class="f">bash-3.2$</text><text x="10.02" y="1.67" class="f">java</text><text x="15.03" y="1.67" class="f">-jar</text><text x="20.04" y="1.67" class="f">pip-boy.jar</text><text x="32.064" y="1.67" class="f">-version</text></symbol><symbol id="6"><text x="25.05" y="1.67" class="f">&apos;||</text></symbol><symbol id="7"><text x="9.018" y="1.67" class="f">&apos;&apos;</text><text x="26.052" y="1.67" class="f">||</text></symbol><symbol id="8"><text y="1.67" class="f">&apos;||&apos;&apos;|,</text><text x="9.018" y="1.67" class="f">||</text><text x="13.026" y="1.67" class="f">&apos;||&apos;&apos;|,</text><text x="21.042" y="1.67" class="f">---</text><text x="26.052" y="1.67" class="f">||&apos;&apos;|,</text><text x="33.066" y="1.67" class="f">.|&apos;&apos;|,</text><text x="40.08" y="1.67" class="f">&apos;||</text><text x="45.09" y="1.67" class="f">||`</text></symbol><symbol id="9"><text x="1.002" y="1.67" class="f">||</text><text x="5.01" y="1.67" class="f">||</text><text x="9.018" y="1.67" class="f">||</text><text x="14.028" y="1.67" class="f">||</text><text x="18.036" y="1.67" class="f">||</text><text x="26.052" y="1.67" class="f">||</text><text x="30.06" y="1.67" class="f">||</text><text x="33.066" y="1.67" class="f">||</text><text x="37.074" y="1.67" class="f">||</text><text x="41.082" y="1.67" class="f">`|..||</text></symbol><symbol id="10"><text x="1.002" y="1.67" class="f">||..|&apos;</text><text x="8.016" y="1.67" class="f">.||.</text><text x="14.028" y="1.67" class="f">||..|&apos;</text><text x="25.05" y="1.67" class="f">.||..|&apos;</text><text x="33.066" y="1.67" class="f">`|..|&apos;</text><text x="45.09" y="1.67" class="f">||</text></symbol><symbol id="11"><text x="1.002" y="1.67" class="f">||</text><text x="14.028" y="1.67" class="f">||</text><text x="42.084" y="1.67" class="f">,</text><text x="45.09" y="1.67" class="f">|&apos;</text></symbol><symbol id="12"><text y="1.67" class="f">.||</text><text x="13.026" y="1.67" class="f">.||</text><text x="43.086" y="1.67" class="f">&apos;&apos;</text></symbol><symbol id="13"><text x="1.002" y="1.67" class="f">++</text><text x="5.01" y="1.67" class="f">pip-boy</text><text x="14.028" y="1.67" class="f">++</text><text x="34.068" y="1.67" class="f">(v1.0</text><text x="40.08" y="1.67" class="f">RELEASE)</text></symbol><symbol id="14"><text y="1.67" class="f">bash-3.2$</text><text x="10.02" y="1.67" class="f">exit</text></symbol><symbol id="a"><path fill="transparent" d="M0 0h80v25H0z"/></symbol><symbol id="b"><path fill="#6f7683" d="M0 0h1.102v2.171H0z"/></symbol></defs><path class="a" d="M0 0h80v54.275H0z"/><g style="animation-duration:17.811869s;animation-iteration-count:infinite;animation-name:i;animation-timing-function:steps(1,end)"><svg width="2960"><svg><use xlink:href="#a"/><use xlink:href="#b" x="-.004"/></svg><svg x="80"><use xlink:href="#a"/><use xlink:href="#b" x="9.996"/><use xlink:href="#1"/></svg><svg x="160"><use xlink:href="#a"/><use xlink:href="#b" x="10.996"/><text y="1.67" class="f">bash-3.2$</text><text x="10.02" y="1.67" class="f">j</text></svg><svg x="240"><use xlink:href="#a"/><use xlink:href="#b" x="11.996"/><text y="1.67" class="f">bash-3.2$</text><text x="10.02" y="1.67" class="f">ja</text></svg><svg x="320"><use xlink:href="#a"/><use xlink:href="#b" x="12.996"/><text y="1.67" class="f">bash-3.2$</text><text x="10.02" y="1.67" class="f">jav</text></svg><svg x="400"><use xlink:href="#a"/><use xlink:href="#b" x="13.996"/><use xlink:href="#2"/></svg><svg x="480"><use xlink:href="#a"/><use xlink:href="#b" x="14.996"/><use xlink:href="#2"/></svg><svg x="560"><use xlink:href="#a"/><use xlink:href="#b" x="15.996"/><text y="1.67" class="f">bash-3.2$</text><text x="10.02" y="1.67" class="f">java</text><text x="15.03" y="1.67" class="f">-</text></svg><svg x="640"><use xlink:href="#a"/><use xlink:href="#b" x="16.996"/><text y="1.67" class="f">bash-3.2$</text><text x="10.02" y="1.67" class="f">java</text><text x="15.03" y="1.67" class="f">-j</text></svg><svg x="720"><use xlink:href="#a"/><use xlink:href="#b" x="17.996"/><text y="1.67" class="f">bash-3.2$</text><text x="10.02" y="1.67" class="f">java</text><text x="15.03" y="1.67" class="f">-ja</text></svg><svg x="800"><use xlink:href="#a"/><use xlink:href="#b" x="18.996"/><use xlink:href="#3"/></svg><svg x="880"><use xlink:href="#a"/><use xlink:href="#b" x="19.996"/><use xlink:href="#3"/></svg><svg x="960"><use xlink:href="#a"/><use xlink:href="#b" x="20.996"/><text y="1.67" class="f">bash-3.2$</text><text x="10.02" y="1.67" class="f">java</text><text x="15.03" y="1.67" class="f">-jar</text><text x="20.04" y="1.67" class="f">p</text></svg><svg x="1040"><use xlink:href="#a"/><use xlink:href="#b" x="21.996"/><text y="1.67" class="f">bash-3.2$</text><text x="10.02" y="1.67" class="f">java</text><text x="15.03" y="1.67" class="f">-jar</text><text x="20.04" y="1.67" class="f">pi</text></svg><svg x="1120"><use xlink:href="#a"/><use xlink:href="#b" x="22.996"/><text y="1.67" class="f">bash-3.2$</text><text x="10.02" y="1.67" class="f">java</text><text x="15.03" y="1.67" class="f">-jar</text><text x="20.04" y="1.67" class="f">pip</text></svg><svg x="1200"><use xlink:href="#a"/><use xlink:href="#b" x="26.996"/><text y="1.67" class="f">bash-3.2$</text><text x="10.02" y="1.67" class="f">java</text><text x="15.03" y="1.67" class="f">-jar</text><text x="20.04" y="1.67" class="f">pip-boy</text></svg><svg x="1280"><use xlink:href="#a"/><use xlink:href="#b" x="27.996"/><text y="1.67" class="f">bash-3.2$</text><text x="10.02" y="1.67" class="f">java</text><text x="15.03" y="1.67" class="f">-jar</text><text x="20.04" y="1.67" class="f">pip-boy.</text></svg><svg x="1360"><use xlink:href="#a"/><use xlink:href="#b" x="28.996"/><text y="1.67" class="f">bash-3.2$</text><text x="10.02" y="1.67" class="f">java</text><text x="15.03" y="1.67" class="f">-jar</text><text x="20.04" y="1.67" class="f">pip-boy.j</text></svg><svg x="1440"><use xlink:href="#a"/><use xlink:href="#b" x="29.996"/><text y="1.67" class="f">bash-3.2$</text><text x="10.02" y="1.67" class="f">java</text><text x="15.03" y="1.67" class="f">-jar</text><text x="20.04" y="1.67" class="f">pip-boy.ja</text></svg><svg x="1520"><use xlink:href="#a"/><use xlink:href="#b" x="30.996"/><use xlink:href="#4"/></svg><svg x="1600"><use xlink:href="#a"/><use xlink:href="#b" x="31.996"/><use xlink:href="#4"/></svg><svg x="1680"><use xlink:href="#a"/><use xlink:href="#b" x="32.996"/><text y="1.67" class="f">bash-3.2$</text><text x="10.02" y="1.67" class="f">java</text><text x="15.03" y="1.67" class="f">-jar</text><text x="20.04" y="1.67" class="f">pip-boy.jar</text><text x="32.064" y="1.67" class="f">-</text></svg><svg x="1760"><use xlink:href="#a"/><use xlink:href="#b" x="33.996"/><text y="1.67" class="f">bash-3.2$</text><text x="10.02" y="1.67" class="f">java</text><text x="15.03" y="1.67" class="f">-jar</text><text x="20.04" y="1.67" class="f">pip-boy.jar</text><text x="32.064" y="1.67" class="f">-v</text></svg><svg x="1840"><use xlink:href="#a"/><use xlink:href="#b" x="34.996"/><text y="1.67" class="f">bash-3.2$</text><text x="10.02" y="1.67" class="f">java</text><text x="15.03" y="1.67" class="f">-jar</text><text x="20.04" y="1.67" class="f">pip-boy.jar</text><text x="32.064" y="1.67" class="f">-ve</text></svg><svg x="1920"><use xlink:href="#a"/><use xlink:href="#b" x="35.996"/><text y="1.67" class="f">bash-3.2$</text><text x="10.02" y="1.67" class="f">java</text><text x="15.03" y="1.67" class="f">-jar</text><text x="20.04" y="1.67" class="f">pip-boy.jar</text><text x="32.064" y="1.67" class="f">-ver</text></svg><svg x="2000"><use xlink:href="#a"/><use xlink:href="#b" x="36.996"/><text y="1.67" class="f">bash-3.2$</text><text x="10.02" y="1.67" class="f">java</text><text x="15.03" y="1.67" class="f">-jar</text><text x="20.04" y="1.67" class="f">pip-boy.jar</text><text x="32.064" y="1.67" class="f">-vers</text></svg><svg x="2080"><use xlink:href="#a"/><use xlink:href="#b" x="37.996"/><text y="1.67" class="f">bash-3.2$</text><text x="10.02" y="1.67" class="f">java</text><text x="15.03" y="1.67" class="f">-jar</text><text x="20.04" y="1.67" class="f">pip-boy.jar</text><text x="32.064" y="1.67" class="f">-versi</text></svg><svg x="2160"><use xlink:href="#a"/><use xlink:href="#b" x="38.996"/><text y="1.67" class="f">bash-3.2$</text><text x="10.02" y="1.67" class="f">java</text><text x="15.03" y="1.67" class="f">-jar</text><text x="20.04" y="1.67" class="f">pip-boy.jar</text><text x="32.064" y="1.67" class="f">-versio</text></svg><svg x="2240"><use xlink:href="#a"/><use xlink:href="#b" x="39.996"/><use xlink:href="#5"/></svg><svg x="2320"><use xlink:href="#a"/><use xlink:href="#b" x="-.004" y="2.146"/><use xlink:href="#5"/></svg><svg x="2400"><use xlink:href="#a"/><use xlink:href="#b" x="-.004" y="21.685"/><use xlink:href="#5"/><use xlink:href="#6" y="4.342"/><use xlink:href="#7" y="6.513"/><use xlink:href="#8" y="8.684"/><use xlink:href="#9" y="10.855"/><use xlink:href="#10" y="13.026"/><use xlink:href="#11" y="15.197"/><use xlink:href="#12" y="17.368"/><use xlink:href="#13" y="19.539"/></svg><svg x="2480"><use xlink:href="#a"/><use xlink:href="#b" x="9.996" y="21.685"/><use xlink:href="#5"/><use xlink:href="#6" y="4.342"/><use xlink:href="#7" y="6.513"/><use xlink:href="#8" y="8.684"/><use xlink:href="#9" y="10.855"/><use xlink:href="#10" y="13.026"/><use xlink:href="#11" y="15.197"/><use xlink:href="#12" y="17.368"/><use xlink:href="#13" y="19.539"/><use xlink:href="#1" y="21.71"/></svg><svg x="2560"><use xlink:href="#a"/><use xlink:href="#b" x="10.996" y="21.685"/><use xlink:href="#5"/><use xlink:href="#6" y="4.342"/><use xlink:href="#7" y="6.513"/><use xlink:href="#8" y="8.684"/><use xlink:href="#9" y="10.855"/><use xlink:href="#10" y="13.026"/><use xlink:href="#11" y="15.197"/><use xlink:href="#12" y="17.368"/><use xlink:href="#13" y="19.539"/><text y="23.38" class="f">bash-3.2$</text><text x="10.02" y="23.38" class="f">e</text></svg><svg x="2640"><use xlink:href="#a"/><use xlink:href="#b" x="11.996" y="21.685"/><use xlink:href="#5"/><use xlink:href="#6" y="4.342"/><use xlink:href="#7" y="6.513"/><use xlink:href="#8" y="8.684"/><use xlink:href="#9" y="10.855"/><use xlink:href="#10" y="13.026"/><use xlink:href="#11" y="15.197"/><use xlink:href="#12" y="17.368"/><use xlink:href="#13" y="19.539"/><text y="23.38" class="f">bash-3.2$</text><text x="10.02" y="23.38" class="f">ex</text></svg><svg x="2720"><use xlink:href="#a"/><use xlink:href="#b" x="12.996" y="21.685"/><use xlink:href="#5"/><use xlink:href="#6" y="4.342"/><use xlink:href="#7" y="6.513"/><use xlink:href="#8" y="8.684"/><use xlink:href="#9" y="10.855"/><use xlink:href="#10" y="13.026"/><use xlink:href="#11" y="15.197"/><use xlink:href="#12" y="17.368"/><use xlink:href="#13" y="19.539"/><text y="23.38" class="f">bash-3.2$</text><text x="10.02" y="23.38" class="f">exi</text></svg><svg x="2800"><use xlink:href="#a"/><use xlink:href="#b" x="13.996" y="21.685"/><use xlink:href="#5"/><use xlink:href="#6" y="4.342"/><use xlink:href="#7" y="6.513"/><use xlink:href="#8" y="8.684"/><use xlink:href="#9" y="10.855"/><use xlink:href="#10" y="13.026"/><use xlink:href="#11" y="15.197"/><use xlink:href="#12" y="17.368"/><use xlink:href="#13" y="19.539"/><use xlink:href="#14" y="21.71"/></svg><svg x="2880"><use xlink:href="#a"/><use xlink:href="#b" x="-.004" y="23.856"/><use xlink:href="#5"/><use xlink:href="#6" y="4.342"/><use xlink:href="#7" y="6.513"/><use xlink:href="#8" y="8.684"/><use xlink:href="#9" y="10.855"/><use xlink:href="#10" y="13.026"/><use xlink:href="#11" y="15.197"/><use xlink:href="#12" y="17.368"/><use xlink:href="#13" y="19.539"/><use xlink:href="#14" y="21.71"/></svg></svg></g></g></svg></svg>