<svg xmlns="http://www.w3.org/2000/svg" xmlns:xlink="http://www.w3.org/1999/xlink" width="800" height="542.75"><rect width="800" height="542.75" rx="0" ry="0" class="a"/><svg height="542.75" viewBox="0 0 80 54.275" width="800" xmlns="http://www.w3.org/2000/svg" xmlns:xlink="http://www.w3.org/1999/xlink"><style>@keyframes f{0%{transform:translateX(0)}.04%{transform:translateX(-80px)}1.7%{transform:translateX(-160px)}1.98%{transform:translateX(-240px)}2.31%{transform:translateX(-320px)}2.66%{transform:translateX(-400px)}3.19%{transform:translateX(-480px)}5.57%{transform:translateX(-560px)}6.74%{transform:translateX(-640px)}7.01%{transform:translateX(-720px)}7.62%{transform:translateX(-800px)}8.15%{transform:translateX(-880px)}9.72%{transform:translateX(-960px)}10.69%{transform:translateX(-1040px)}18%{transform:translateX(-1120px)}19.57%{transform:translateX(-1200px)}20.66%{transform:translateX(-1280px)}21.29%{transform:translateX(-1360px)}21.6%{transform:translateX(-1440px)}22.71%{transform:translateX(-1520px)}24.94%{transform:translateX(-3120px)}24.95%{transform:translateX(-4240px)}27.34%{transform:translateX(-4320px)}29.29%{transform:translateX(-4400px)}29.52%{transform:translateX(-4480px)}29.98%{transform:translateX(-4560px)}30.46%{transform:translateX(-4640px)}32.38%{transform:translateX(-4720px)}35.09%{transform:translateX(-4800px)}35.39%{transform:translateX(-4880px)}35.75%{transform:translateX(-4960px)}36.08%{transform:translateX(-5040px)}36.94%{transform:translateX(-5120px)}38.05%{transform:translateX(-5200px)}38.86%{transform:translateX(-5280px)}42.03%{transform:translateX(-5360px)}42.26%{transform:translateX(-5440px)}42.69%{transform:translateX(-5520px)}43.47%{transform:translateX(-5600px)}44.58%{transform:translateX(-5680px)}45.6%{transform:translateX(-5760px)}48.61%{transform:translateX(-5840px)}48.86%{transform:translateX(-5920px)}49.24%{transform:translateX(-6000px)}49.52%{transform:translateX(-6080px)}50.08%{transform:translateX(-6160px)}51.95%{transform:translateX(-6240px)}53.12%{transform:translateX(-6320px)}53.32%{transform:translateX(-6400px)}53.9%{transform:translateX(-6480px)}54.41%{transform:translateX(-6560px)}55.95%{transform:translateX(-6640px)}56.43%{transform:translateX(-6720px)}61.34%{transform:translateX(-6800px)}63.22%{transform:translateX(-6880px)}64.46%{transform:translateX(-6960px)}66.74%{transform:translateX(-7040px)}70.36%{transform:translateX(-7120px)}76.61%{transform:translateX(-7200px)}78.1%{transform:translateX(-7280px)}78.71%{transform:translateX(-7360px)}79.24%{transform:translateX(-7440px)}81.65%{transform:translateX(-7520px)}83.62%{transform:translateX(-7600px)}84.3%{transform:translateX(-7680px)}84.94%{transform:translateX(-7760px)}86.2%{transform:translateX(-7840px)}87.04%{transform:translateX(-7920px)}88.94%{transform:translateX(-8000px)}90.23%{transform:translateX(-8080px)}90.28%{transform:translateX(-8160px)}97.54%{transform:translateX(-8240px)}98.13%{transform:translateX(-8320px)}98.64%{transform:translateX(-8400px)}99.32%{transform:translateX(-8480px)}to{transform:translateX(-8560px)}}.a{fill:#282d35}.c{fill:#b9c0cb}</style><g font-size="1.67" font-family="Monaco,Consolas,Menlo,'Bitstream Vera Sans Mono','Powerline Symbols',monospace"><defs><symbol id="1"><text y="1.67" class="c">bash-3.2$</text></symbol><symbol id="2"><text y="1.67" class="c">bash-3.2$</text><text x="10.02" y="1.67" class="c">j</text></symbol><symbol id="3"><text y="1.67" class="c">bash-3.2$</text><text x="10.02" y="1.67" class="c">ja</text></symbol><symbol id="4"><text y="1.67" class="c">bash-3.2$</text><text x="10.02" y="1.67" class="c">jav</text></symbol><symbol id="5"><text y="1.67" class="c">bash-3.2$</text><text x="10.02" y="1.67" class="c">java</text></symbol><symbol id="6"><text y="1.67" class="c">bash-3.2$</text><text x="10.02" y="1.67" class="c">java</text><text x="15.03" y="1.67" class="c">-</text></symbol><symbol id="7"><text y="1.67" class="c">bash-3.2$</text><text x="10.02" y="1.67" class="c">java</text><text x="15.03" y="1.67" class="c">-j</text></symbol><symbol id="8"><text y="1.67" class="c">bash-3.2$</text><text x="10.02" y="1.67" class="c">java</text><text x="15.03" y="1.67" class="c">-ja</text></symbol><symbol id="9"><text y="1.67" class="c">bash-3.2$</text><text x="10.02" y="1.67" class="c">java</text><text x="15.03" y="1.67" class="c">-jar</text></symbol><symbol id="10"><text y="1.67" class="c">bash-3.2$</text><text x="10.02" y="1.67" class="c">java</text><text x="15.03" y="1.67" class="c">-jar</text><text x="20.04" y="1.67" class="c">p</text></symbol><symbol id="11"><text y="1.67" class="c">bash-3.2$</text><text x="10.02" y="1.67" class="c">java</text><text x="15.03" y="1.67" class="c">-jar</text><text x="20.04" y="1.67" class="c">pip-boy.jar</text></symbol><symbol id="12"><text y="1.67" class="c">bash-3.2$</text><text x="10.02" y="1.67" class="c">java</text><text x="15.03" y="1.67" class="c">-jar</text><text x="20.04" y="1.67" class="c">pip-boy.jar</text><text x="32.064" y="1.67" class="c">-</text></symbol><symbol id="13"><text y="1.67" class="c">bash-3.2$</text><text x="10.02" y="1.67" class="c">java</text><text x="15.03" y="1.67" class="c">-jar</text><text x="20.04" y="1.67" class="c">pip-boy.jar</text><text x="32.064" y="1.67" class="c">-Xjre</text></symbol><symbol id="14"><text y="1.67" class="c">bash-3.2$</text><text x="10.02" y="1.67" class="c">java</text><text x="15.03" y="1.67" class="c">-jar</text><text x="20.04" y="1.67" class="c">pip-boy.jar</text><text x="32.064" y="1.67" class="c">-Xjre</text><text x="38.076" y="1.67" class="c">/Library/Java/JavaVirtualMachines/jdk1.8.0</text></symbol><symbol id="15"><text y="1.67" class="c">_171.jdk/Contents/Home/jre</text></symbol><symbol id="16"><text y="1.67" class="c">_171.jdk/Contents/Home/jre</text><text x="27.054" y="1.67" class="c">java.lang.Object</text></symbol><symbol id="17"><text y="1.67" class="c">bash-3.2$</text><text x="10.02" y="1.67" class="c">java</text><text x="15.03" y="1.67" class="c">-jar</text><text x="20.04" y="1.67" class="c">pip-boy.jar</text><text x="32.064" y="1.67" class="c">-cp</text></symbol><symbol id="18"><text y="1.67" class="c">bash-3.2$</text><text x="10.02" y="1.67" class="c">java</text><text x="15.03" y="1.67" class="c">-jar</text><text x="20.04" y="1.67" class="c">pip-boy.jar</text><text x="32.064" y="1.67" class="c">-cp</text><text x="36.072" y="1.67" class="c">./out</text></symbol><symbol id="19"><text y="1.67" class="c">bash-3.2$</text><text x="10.02" y="1.67" class="c">java</text><text x="15.03" y="1.67" class="c">-jar</text><text x="20.04" y="1.67" class="c">pip-boy.jar</text><text x="32.064" y="1.67" class="c">-cp</text><text x="36.072" y="1.67" class="c">./out</text><text x="42.084" y="1.67" class="c">Hello</text></symbol><symbol id="20"><text y="1.67" class="c">Hello!</text></symbol><symbol id="21"><text y="1.67" class="c">bash-3.2$</text><text x="10.02" y="1.67" class="c">exit</text></symbol><symbol id="a"><path fill="transparent" d="M0 0h80v25H0z"/></symbol><symbol id="b"><path fill="#6f7683" d="M0 0h1.102v2.171H0z"/></symbol></defs><path class="a" d="M0 0h80v54.275H0z"/><g style="animation-duration:31.600717999999997s;animation-iteration-count:infinite;animation-name:f;animation-timing-function:steps(1,end)"><svg width="8640"><svg><use xlink:href="#a"/><use xlink:href="#b" x="-.004"/></svg><svg x="80"><use xlink:href="#a"/><use xlink:href="#b" x="9.996"/><use xlink:href="#1"/></svg><svg x="160"><use xlink:href="#a"/><use xlink:href="#b" x="10.996"/><use xlink:href="#2"/></svg><svg x="240"><use xlink:href="#a"/><use xlink:href="#b" x="11.996"/><use xlink:href="#3"/></svg><svg x="320"><use xlink:href="#a"/><use xlink:href="#b" x="12.996"/><use xlink:href="#4"/></svg><svg x="400"><use xlink:href="#a"/><use xlink:href="#b" x="13.996"/><use xlink:href="#5"/></svg><svg x="480"><use xlink:href="#a"/><use xlink:href="#b" x="14.996"/><use xlink:href="#5"/></svg><svg x="560"><use xlink:href="#a"/><use xlink:href="#b" x="15.996"/><use xlink:href="#6"/></svg><svg x="640"><use xlink:href="#a"/><use xlink:href="#b" x="16.996"/><use xlink:href="#7"/></svg><svg x="720"><use xlink:href="#a"/><use xlink:href="#b" x="17.996"/><use xlink:href="#8"/></svg><svg x="800"><use xlink:href="#a"/><use xlink:href="#b" x="18.996"/><use xlink:href="#9"/></svg><svg x="880"><use xlink:href="#a"/><use xlink:href="#b" x="19.996"/><use xlink:href="#9"/></svg><svg x="960"><use xlink:href="#a"/><use xlink:href="#b" x="20.996"/><use xlink:href="#10"/></svg><svg x="1040"><use xlink:href="#a"/><use xlink:href="#b" x="31.996"/><use xlink:href="#11"/></svg><svg x="1120"><use xlink:href="#a"/><use xlink:href="#b" x="32.996"/><use xlink:href="#12"/></svg><svg x="1200"><use xlink:href="#a"/><use xlink:href="#b" x="33.996"/><text y="1.67" class="c">bash-3.2$</text><text x="10.02" y="1.67" class="c">java</text><text x="15.03" y="1.67" class="c">-jar</text><text x="20.04" y="1.67" class="c">pip-boy.jar</text><text x="32.064" y="1.67" class="c">-X</text></svg><svg x="1280"><use xlink:href="#a"/><use xlink:href="#b" x="34.996"/><text y="1.67" class="c">bash-3.2$</text><text x="10.02" y="1.67" class="c">java</text><text x="15.03" y="1.67" class="c">-jar</text><text x="20.04" y="1.67" class="c">pip-boy.jar</text><text x="32.064" y="1.67" class="c">-Xj</text></svg><svg x="1360"><use xlink:href="#a"/><use xlink:href="#b" x="35.996"/><text y="1.67" class="c">bash-3.2$</text><text x="10.02" y="1.67" class="c">java</text><text x="15.03" y="1.67" class="c">-jar</text><text x="20.04" y="1.67" class="c">pip-boy.jar</text><text x="32.064" y="1.67" class="c">-Xjr</text></svg><svg x="1440"><use xlink:href="#a"/><use xlink:href="#b" x="36.996"/><use xlink:href="#13"/></svg><svg x="1520"><use xlink:href="#a"/><use xlink:href="#b" x="37.996"/><use xlink:href="#13"/></svg><svg x="1600"><use xlink:href="#a"/><use xlink:href="#b" x="38.996"/><text y="1.67" class="c">bash-3.2$</text><text x="10.02" y="1.67" class="c">java</text><text x="15.03" y="1.67" class="c">-jar</text><text x="20.04" y="1.67" class="c">pip-boy.jar</text><text x="32.064" y="1.67" class="c">-Xjre</text><text x="38.076" y="1.67" class="c">/</text></svg><svg x="1680"><use xlink:href="#a"/><use xlink:href="#b" x="42.996"/><text y="1.67" class="c">bash-3.2$</text><text x="10.02" y="1.67" class="c">java</text><text x="15.03" y="1.67" class="c">-jar</text><text x="20.04" y="1.67" class="c">pip-boy.jar</text><text x="32.064" y="1.67" class="c">-Xjre</text><text x="38.076" y="1.67" class="c">/Libr</text></svg><svg x="1760"><use xlink:href="#a"/><use xlink:href="#b" x="44.996"/><text y="1.67" class="c">bash-3.2$</text><text x="10.02" y="1.67" class="c">java</text><text x="15.03" y="1.67" class="c">-jar</text><text x="20.04" y="1.67" class="c">pip-boy.jar</text><text x="32.064" y="1.67" class="c">-Xjre</text><text x="38.076" y="1.67" class="c">/Librar</text></svg><svg x="1840"><use xlink:href="#a"/><use xlink:href="#b" x="46.996"/><text y="1.67" class="c">bash-3.2$</text><text x="10.02" y="1.67" class="c">java</text><text x="15.03" y="1.67" class="c">-jar</text><text x="20.04" y="1.67" class="c">pip-boy.jar</text><text x="32.064" y="1.67" class="c">-Xjre</text><text x="38.076" y="1.67" class="c">/Library/</text></svg><svg x="1920"><use xlink:href="#a"/><use xlink:href="#b" x="48.996"/><text y="1.67" class="c">bash-3.2$</text><text x="10.02" y="1.67" class="c">java</text><text x="15.03" y="1.67" class="c">-jar</text><text x="20.04" y="1.67" class="c">pip-boy.jar</text><text x="32.064" y="1.67" class="c">-Xjre</text><text x="38.076" y="1.67" class="c">/Library/Ja</text></svg><svg x="2000"><use xlink:href="#a"/><use xlink:href="#b" x="50.996"/><text y="1.67" class="c">bash-3.2$</text><text x="10.02" y="1.67" class="c">java</text><text x="15.03" y="1.67" class="c">-jar</text><text x="20.04" y="1.67" class="c">pip-boy.jar</text><text x="32.064" y="1.67" class="c">-Xjre</text><text x="38.076" y="1.67" class="c">/Library/Java</text></svg><svg x="2080"><use xlink:href="#a"/><use xlink:href="#b" x="52.996"/><text y="1.67" class="c">bash-3.2$</text><text x="10.02" y="1.67" class="c">java</text><text x="15.03" y="1.67" class="c">-jar</text><text x="20.04" y="1.67" class="c">pip-boy.jar</text><text x="32.064" y="1.67" class="c">-Xjre</text><text x="38.076" y="1.67" class="c">/Library/Java/J</text></svg><svg x="2160"><use xlink:href="#a"/><use xlink:href="#b" x="54.996"/><text y="1.67" class="c">bash-3.2$</text><text x="10.02" y="1.67" class="c">java</text><text x="15.03" y="1.67" class="c">-jar</text><text x="20.04" y="1.67" class="c">pip-boy.jar</text><text x="32.064" y="1.67" class="c">-Xjre</text><text x="38.076" y="1.67" class="c">/Library/Java/Jav</text></svg><svg x="2240"><use xlink:href="#a"/><use xlink:href="#b" x="56.996"/><text y="1.67" class="c">bash-3.2$</text><text x="10.02" y="1.67" class="c">java</text><text x="15.03" y="1.67" class="c">-jar</text><text x="20.04" y="1.67" class="c">pip-boy.jar</text><text x="32.064" y="1.67" class="c">-Xjre</text><text x="38.076" y="1.67" class="c">/Library/Java/JavaV</text></svg><svg x="2320"><use xlink:href="#a"/><use xlink:href="#b" x="58.996"/><text y="1.67" class="c">bash-3.2$</text><text x="10.02" y="1.67" class="c">java</text><text x="15.03" y="1.67" class="c">-jar</text><text x="20.04" y="1.67" class="c">pip-boy.jar</text><text x="32.064" y="1.67" class="c">-Xjre</text><text x="38.076" y="1.67" class="c">/Library/Java/JavaVir</text></svg><svg x="2400"><use xlink:href="#a"/><use xlink:href="#b" x="61.996"/><text y="1.67" class="c">bash-3.2$</text><text x="10.02" y="1.67" class="c">java</text><text x="15.03" y="1.67" class="c">-jar</text><text x="20.04" y="1.67" class="c">pip-boy.jar</text><text x="32.064" y="1.67" class="c">-Xjre</text><text x="38.076" y="1.67" class="c">/Library/Java/JavaVirtua</text></svg><svg x="2480"><use xlink:href="#a"/><use xlink:href="#b" x="62.996"/><text y="1.67" class="c">bash-3.2$</text><text x="10.02" y="1.67" class="c">java</text><text x="15.03" y="1.67" class="c">-jar</text><text x="20.04" y="1.67" class="c">pip-boy.jar</text><text x="32.064" y="1.67" class="c">-Xjre</text><text x="38.076" y="1.67" class="c">/Library/Java/JavaVirtual</text></svg><svg x="2560"><use xlink:href="#a"/><use xlink:href="#b" x="64.996"/><text y="1.67" class="c">bash-3.2$</text><text x="10.02" y="1.67" class="c">java</text><text x="15.03" y="1.67" class="c">-jar</text><text x="20.04" y="1.67" class="c">pip-boy.jar</text><text x="32.064" y="1.67" class="c">-Xjre</text><text x="38.076" y="1.67" class="c">/Library/Java/JavaVirtualMa</text></svg><svg x="2640"><use xlink:href="#a"/><use xlink:href="#b" x="65.996"/><text y="1.67" class="c">bash-3.2$</text><text x="10.02" y="1.67" class="c">java</text><text x="15.03" y="1.67" class="c">-jar</text><text x="20.04" y="1.67" class="c">pip-boy.jar</text><text x="32.064" y="1.67" class="c">-Xjre</text><text x="38.076" y="1.67" class="c">/Library/Java/JavaVirtualMac</text></svg><svg x="2720"><use xlink:href="#a"/><use xlink:href="#b" x="67.996"/><text y="1.67" class="c">bash-3.2$</text><text x="10.02" y="1.67" class="c">java</text><text x="15.03" y="1.67" class="c">-jar</text><text x="20.04" y="1.67" class="c">pip-boy.jar</text><text x="32.064" y="1.67" class="c">-Xjre</text><text x="38.076" y="1.67" class="c">/Library/Java/JavaVirtualMachi</text></svg><svg x="2800"><use xlink:href="#a"/><use xlink:href="#b" x="69.996"/><text y="1.67" class="c">bash-3.2$</text><text x="10.02" y="1.67" class="c">java</text><text x="15.03" y="1.67" class="c">-jar</text><text x="20.04" y="1.67" class="c">pip-boy.jar</text><text x="32.064" y="1.67" class="c">-Xjre</text><text x="38.076" y="1.67" class="c">/Library/Java/JavaVirtualMachine</text></svg><svg x="2880"><use xlink:href="#a"/><use xlink:href="#b" x="70.996"/><text y="1.67" class="c">bash-3.2$</text><text x="10.02" y="1.67" class="c">java</text><text x="15.03" y="1.67" class="c">-jar</text><text x="20.04" y="1.67" class="c">pip-boy.jar</text><text x="32.064" y="1.67" class="c">-Xjre</text><text x="38.076" y="1.67" class="c">/Library/Java/JavaVirtualMachines</text></svg><svg x="2960"><use xlink:href="#a"/><use xlink:href="#b" x="72.996"/><text y="1.67" class="c">bash-3.2$</text><text x="10.02" y="1.67" class="c">java</text><text x="15.03" y="1.67" class="c">-jar</text><text x="20.04" y="1.67" class="c">pip-boy.jar</text><text x="32.064" y="1.67" class="c">-Xjre</text><text x="38.076" y="1.67" class="c">/Library/Java/JavaVirtualMachines/j</text></svg><svg x="3040"><use xlink:href="#a"/><use xlink:href="#b" x="73.996"/><text y="1.67" class="c">bash-3.2$</text><text x="10.02" y="1.67" class="c">java</text><text x="15.03" y="1.67" class="c">-jar</text><text x="20.04" y="1.67" class="c">pip-boy.jar</text><text x="32.064" y="1.67" class="c">-Xjre</text><text x="38.076" y="1.67" class="c">/Library/Java/JavaVirtualMachines/jd</text></svg><svg x="3120"><use xlink:href="#a"/><use xlink:href="#b" x="75.996"/><text y="1.67" class="c">bash-3.2$</text><text x="10.02" y="1.67" class="c">java</text><text x="15.03" y="1.67" class="c">-jar</text><text x="20.04" y="1.67" class="c">pip-boy.jar</text><text x="32.064" y="1.67" class="c">-Xjre</text><text x="38.076" y="1.67" class="c">/Library/Java/JavaVirtualMachines/jdk1</text></svg><svg x="3200"><use xlink:href="#a"/><use xlink:href="#b" x="77.996"/><text y="1.67" class="c">bash-3.2$</text><text x="10.02" y="1.67" class="c">java</text><text x="15.03" y="1.67" class="c">-jar</text><text x="20.04" y="1.67" class="c">pip-boy.jar</text><text x="32.064" y="1.67" class="c">-Xjre</text><text x="38.076" y="1.67" class="c">/Library/Java/JavaVirtualMachines/jdk1.8</text></svg><svg x="3280"><use xlink:href="#a"/><use xlink:href="#b" x="78.996"/><text y="1.67" class="c">bash-3.2$</text><text x="10.02" y="1.67" class="c">java</text><text x="15.03" y="1.67" class="c">-jar</text><text x="20.04" y="1.67" class="c">pip-boy.jar</text><text x="32.064" y="1.67" class="c">-Xjre</text><text x="38.076" y="1.67" class="c">/Library/Java/JavaVirtualMachines/jdk1.8.</text></svg><svg x="3360"><use xlink:href="#a"/><use xlink:href="#b" x=".996" y="2.146"/><use xlink:href="#14"/><text y="3.841" class="c">_</text></svg><svg x="3440"><use xlink:href="#a"/><use xlink:href="#b" x="3.996" y="2.146"/><use xlink:href="#14"/><text y="3.841" class="c">_171</text></svg><svg x="3520"><use xlink:href="#a"/><use xlink:href="#b" x="5.996" y="2.146"/><use xlink:href="#14"/><text y="3.841" class="c">_171.j</text></svg><svg x="3600"><use xlink:href="#a"/><use xlink:href="#b" x="8.996" y="2.146"/><use xlink:href="#14"/><text y="3.841" class="c">_171.jdk/</text></svg><svg x="3680"><use xlink:href="#a"/><use xlink:href="#b" x="10.996" y="2.146"/><use xlink:href="#14"/><text y="3.841" class="c">_171.jdk/Co</text></svg><svg x="3760"><use xlink:href="#a"/><use xlink:href="#b" x="12.996" y="2.146"/><use xlink:href="#14"/><text y="3.841" class="c">_171.jdk/Cont</text></svg><svg x="3840"><use xlink:href="#a"/><use xlink:href="#b" x="15.996" y="2.146"/><use xlink:href="#14"/><text y="3.841" class="c">_171.jdk/Content</text></svg><svg x="3920"><use xlink:href="#a"/><use xlink:href="#b" x="17.996" y="2.146"/><use xlink:href="#14"/><text y="3.841" class="c">_171.jdk/Contents/</text></svg><svg x="4000"><use xlink:href="#a"/><use xlink:href="#b" x="19.996" y="2.146"/><use xlink:href="#14"/><text y="3.841" class="c">_171.jdk/Contents/Ho</text></svg><svg x="4080"><use xlink:href="#a"/><use xlink:href="#b" x="21.996" y="2.146"/><use xlink:href="#14"/><text y="3.841" class="c">_171.jdk/Contents/Home</text></svg><svg x="4160"><use xlink:href="#a"/><use xlink:href="#b" x="23.996" y="2.146"/><use xlink:href="#14"/><text y="3.841" class="c">_171.jdk/Contents/Home/j</text></svg><svg x="4240"><use xlink:href="#a"/><use xlink:href="#b" x="25.996" y="2.146"/><use xlink:href="#14"/><use xlink:href="#15" y="2.171"/></svg><svg x="4320"><use xlink:href="#a"/><use xlink:href="#b" x="26.996" y="2.146"/><use xlink:href="#14"/><use xlink:href="#15" y="2.171"/></svg><svg x="4400"><use xlink:href="#a"/><use xlink:href="#b" x="27.996" y="2.146"/><use xlink:href="#14"/><text y="3.841" class="c">_171.jdk/Contents/Home/jre</text><text x="27.054" y="3.841" class="c">j</text></svg><svg x="4480"><use xlink:href="#a"/><use xlink:href="#b" x="28.996" y="2.146"/><use xlink:href="#14"/><text y="3.841" class="c">_171.jdk/Contents/Home/jre</text><text x="27.054" y="3.841" class="c">ja</text></svg><svg x="4560"><use xlink:href="#a"/><use xlink:href="#b" x="29.996" y="2.146"/><use xlink:href="#14"/><text y="3.841" class="c">_171.jdk/Contents/Home/jre</text><text x="27.054" y="3.841" class="c">jav</text></svg><svg x="4640"><use xlink:href="#a"/><use xlink:href="#b" x="30.996" y="2.146"/><use xlink:href="#14"/><text y="3.841" class="c">_171.jdk/Contents/Home/jre</text><text x="27.054" y="3.841" class="c">java</text></svg><svg x="4720"><use xlink:href="#a"/><use xlink:href="#b" x="31.996" y="2.146"/><use xlink:href="#14"/><text y="3.841" class="c">_171.jdk/Contents/Home/jre</text><text x="27.054" y="3.841" class="c">java.</text></svg><svg x="4800"><use xlink:href="#a"/><use xlink:href="#b" x="32.996" y="2.146"/><use xlink:href="#14"/><text y="3.841" class="c">_171.jdk/Contents/Home/jre</text><text x="27.054" y="3.841" class="c">java.l</text></svg><svg x="4880"><use xlink:href="#a"/><use xlink:href="#b" x="33.996" y="2.146"/><use xlink:href="#14"/><text y="3.841" class="c">_171.jdk/Contents/Home/jre</text><text x="27.054" y="3.841" class="c">java.la</text></svg><svg x="4960"><use xlink:href="#a"/><use xlink:href="#b" x="34.996" y="2.146"/><use xlink:href="#14"/><text y="3.841" class="c">_171.jdk/Contents/Home/jre</text><text x="27.054" y="3.841" class="c">java.lan</text></svg><svg x="5040"><use xlink:href="#a"/><use xlink:href="#b" x="35.996" y="2.146"/><use xlink:href="#14"/><text y="3.841" class="c">_171.jdk/Contents/Home/jre</text><text x="27.054" y="3.841" class="c">java.lang</text></svg><svg x="5120"><use xlink:href="#a"/><use xlink:href="#b" x="36.996" y="2.146"/><use xlink:href="#14"/><text y="3.841" class="c">_171.jdk/Contents/Home/jre</text><text x="27.054" y="3.841" class="c">java.lang.</text></svg><svg x="5200"><use xlink:href="#a"/><use xlink:href="#b" x="37.996" y="2.146"/><use xlink:href="#14"/><text y="3.841" class="c">_171.jdk/Contents/Home/jre</text><text x="27.054" y="3.841" class="c">java.lang.O</text></svg><svg x="5280"><use xlink:href="#a"/><use xlink:href="#b" x="38.996" y="2.146"/><use xlink:href="#14"/><text y="3.841" class="c">_171.jdk/Contents/Home/jre</text><text x="27.054" y="3.841" class="c">java.lang.Ob</text></svg><svg x="5360"><use xlink:href="#a"/><use xlink:href="#b" x="39.996" y="2.146"/><use xlink:href="#14"/><text y="3.841" class="c">_171.jdk/Contents/Home/jre</text><text x="27.054" y="3.841" class="c">java.lang.Obj</text></svg><svg x="5440"><use xlink:href="#a"/><use xlink:href="#b" x="40.996" y="2.146"/><use xlink:href="#14"/><text y="3.841" class="c">_171.jdk/Contents/Home/jre</text><text x="27.054" y="3.841" class="c">java.lang.Obje</text></svg><svg x="5520"><use xlink:href="#a"/><use xlink:href="#b" x="41.996" y="2.146"/><use xlink:href="#14"/><text y="3.841" class="c">_171.jdk/Contents/Home/jre</text><text x="27.054" y="3.841" class="c">java.lang.Objec</text></svg><svg x="5600"><use xlink:href="#a"/><use xlink:href="#b" x="42.996" y="2.146"/><use xlink:href="#14"/><use xlink:href="#16" y="2.171"/></svg><svg x="5680"><use xlink:href="#a"/><use xlink:href="#b" x="-.004" y="4.317"/><use xlink:href="#14"/><use xlink:href="#16" y="2.171"/></svg><svg x="5760"><use xlink:href="#a"/><use xlink:href="#b" x="9.996" y="4.317"/><use xlink:href="#14"/><use xlink:href="#16" y="2.171"/><use xlink:href="#1" y="4.342"/></svg><svg x="5840"><use xlink:href="#a"/><use xlink:href="#b" x="10.996" y="4.317"/><use xlink:href="#14"/><use xlink:href="#16" y="2.171"/><use xlink:href="#2" y="4.342"/></svg><svg x="5920"><use xlink:href="#a"/><use xlink:href="#b" x="11.996" y="4.317"/><use xlink:href="#14"/><use xlink:href="#16" y="2.171"/><use xlink:href="#3" y="4.342"/></svg><svg x="6000"><use xlink:href="#a"/><use xlink:href="#b" x="12.996" y="4.317"/><use xlink:href="#14"/><use xlink:href="#16" y="2.171"/><use xlink:href="#4" y="4.342"/></svg><svg x="6080"><use xlink:href="#a"/><use xlink:href="#b" x="13.996" y="4.317"/><use xlink:href="#14"/><use xlink:href="#16" y="2.171"/><use xlink:href="#5" y="4.342"/></svg><svg x="6160"><use xlink:href="#a"/><use xlink:href="#b" x="14.996" y="4.317"/><use xlink:href="#14"/><use xlink:href="#16" y="2.171"/><use xlink:href="#5" y="4.342"/></svg><svg x="6240"><use xlink:href="#a"/><use xlink:href="#b" x="15.996" y="4.317"/><use xlink:href="#14"/><use xlink:href="#16" y="2.171"/><use xlink:href="#6" y="4.342"/></svg><svg x="6320"><use xlink:href="#a"/><use xlink:href="#b" x="16.996" y="4.317"/><use xlink:href="#14"/><use xlink:href="#16" y="2.171"/><use xlink:href="#7" y="4.342"/></svg><svg x="6400"><use xlink:href="#a"/><use xlink:href="#b" x="17.996" y="4.317"/><use xlink:href="#14"/><use xlink:href="#16" y="2.171"/><use xlink:href="#8" y="4.342"/></svg><svg x="6480"><use xlink:href="#a"/><use xlink:href="#b" x="18.996" y="4.317"/><use xlink:href="#14"/><use xlink:href="#16" y="2.171"/><use xlink:href="#9" y="4.342"/></svg><svg x="6560"><use xlink:href="#a"/><use xlink:href="#b" x="19.996" y="4.317"/><use xlink:href="#14"/><use xlink:href="#16" y="2.171"/><use xlink:href="#9" y="4.342"/></svg><svg x="6640"><use xlink:href="#a"/><use xlink:href="#b" x="20.996" y="4.317"/><use xlink:href="#14"/><use xlink:href="#16" y="2.171"/><use xlink:href="#10" y="4.342"/></svg><svg x="6720"><use xlink:href="#a"/><use xlink:href="#b" x="31.996" y="4.317"/><use xlink:href="#14"/><use xlink:href="#16" y="2.171"/><use xlink:href="#11" y="4.342"/></svg><svg x="6800"><use xlink:href="#a"/><use xlink:href="#b" x="32.996" y="4.317"/><use xlink:href="#14"/><use xlink:href="#16" y="2.171"/><use xlink:href="#12" y="4.342"/></svg><svg x="6880"><use xlink:href="#a"/><use xlink:href="#b" x="33.996" y="4.317"/><use xlink:href="#14"/><use xlink:href="#16" y="2.171"/><text y="6.012" class="c">bash-3.2$</text><text x="10.02" y="6.012" class="c">java</text><text x="15.03" y="6.012" class="c">-jar</text><text x="20.04" y="6.012" class="c">pip-boy.jar</text><text x="32.064" y="6.012" class="c">-c</text></svg><svg x="6960"><use xlink:href="#a"/><use xlink:href="#b" x="34.996" y="4.317"/><use xlink:href="#14"/><use xlink:href="#16" y="2.171"/><use xlink:href="#17" y="4.342"/></svg><svg x="7040"><use xlink:href="#a"/><use xlink:href="#b" x="35.996" y="4.317"/><use xlink:href="#14"/><use xlink:href="#16" y="2.171"/><use xlink:href="#17" y="4.342"/></svg><svg x="7120"><use xlink:href="#a"/><use xlink:href="#b" x="36.996" y="4.317"/><use xlink:href="#14"/><use xlink:href="#16" y="2.171"/><text y="6.012" class="c">bash-3.2$</text><text x="10.02" y="6.012" class="c">java</text><text x="15.03" y="6.012" class="c">-jar</text><text x="20.04" y="6.012" class="c">pip-boy.jar</text><text x="32.064" y="6.012" class="c">-cp</text><text x="36.072" y="6.012" class="c">.</text></svg><svg x="7200"><use xlink:href="#a"/><use xlink:href="#b" x="37.996" y="4.317"/><use xlink:href="#14"/><use xlink:href="#16" y="2.171"/><text y="6.012" class="c">bash-3.2$</text><text x="10.02" y="6.012" class="c">java</text><text x="15.03" y="6.012" class="c">-jar</text><text x="20.04" y="6.012" class="c">pip-boy.jar</text><text x="32.064" y="6.012" class="c">-cp</text><text x="36.072" y="6.012" class="c">./</text></svg><svg x="7280"><use xlink:href="#a"/><use xlink:href="#b" x="38.996" y="4.317"/><use xlink:href="#14"/><use xlink:href="#16" y="2.171"/><text y="6.012" class="c">bash-3.2$</text><text x="10.02" y="6.012" class="c">java</text><text x="15.03" y="6.012" class="c">-jar</text><text x="20.04" y="6.012" class="c">pip-boy.jar</text><text x="32.064" y="6.012" class="c">-cp</text><text x="36.072" y="6.012" class="c">./o</text></svg><svg x="7360"><use xlink:href="#a"/><use xlink:href="#b" x="39.996" y="4.317"/><use xlink:href="#14"/><use xlink:href="#16" y="2.171"/><text y="6.012" class="c">bash-3.2$</text><text x="10.02" y="6.012" class="c">java</text><text x="15.03" y="6.012" class="c">-jar</text><text x="20.04" y="6.012" class="c">pip-boy.jar</text><text x="32.064" y="6.012" class="c">-cp</text><text x="36.072" y="6.012" class="c">./ou</text></svg><svg x="7440"><use xlink:href="#a"/><use xlink:href="#b" x="40.996" y="4.317"/><use xlink:href="#14"/><use xlink:href="#16" y="2.171"/><use xlink:href="#18" y="4.342"/></svg><svg x="7520"><use xlink:href="#a"/><use xlink:href="#b" x="41.996" y="4.317"/><use xlink:href="#14"/><use xlink:href="#16" y="2.171"/><use xlink:href="#18" y="4.342"/></svg><svg x="7600"><use xlink:href="#a"/><use xlink:href="#b" x="42.996" y="4.317"/><use xlink:href="#14"/><use xlink:href="#16" y="2.171"/><text y="6.012" class="c">bash-3.2$</text><text x="10.02" y="6.012" class="c">java</text><text x="15.03" y="6.012" class="c">-jar</text><text x="20.04" y="6.012" class="c">pip-boy.jar</text><text x="32.064" y="6.012" class="c">-cp</text><text x="36.072" y="6.012" class="c">./out</text><text x="42.084" y="6.012" class="c">H</text></svg><svg x="7680"><use xlink:href="#a"/><use xlink:href="#b" x="43.996" y="4.317"/><use xlink:href="#14"/><use xlink:href="#16" y="2.171"/><text y="6.012" class="c">bash-3.2$</text><text x="10.02" y="6.012" class="c">java</text><text x="15.03" y="6.012" class="c">-jar</text><text x="20.04" y="6.012" class="c">pip-boy.jar</text><text x="32.064" y="6.012" class="c">-cp</text><text x="36.072" y="6.012" class="c">./out</text><text x="42.084" y="6.012" class="c">He</text></svg><svg x="7760"><use xlink:href="#a"/><use xlink:href="#b" x="44.996" y="4.317"/><use xlink:href="#14"/><use xlink:href="#16" y="2.171"/><text y="6.012" class="c">bash-3.2$</text><text x="10.02" y="6.012" class="c">java</text><text x="15.03" y="6.012" class="c">-jar</text><text x="20.04" y="6.012" class="c">pip-boy.jar</text><text x="32.064" y="6.012" class="c">-cp</text><text x="36.072" y="6.012" class="c">./out</text><text x="42.084" y="6.012" class="c">Hel</text></svg><svg x="7840"><use xlink:href="#a"/><use xlink:href="#b" x="45.996" y="4.317"/><use xlink:href="#14"/><use xlink:href="#16" y="2.171"/><text y="6.012" class="c">bash-3.2$</text><text x="10.02" y="6.012" class="c">java</text><text x="15.03" y="6.012" class="c">-jar</text><text x="20.04" y="6.012" class="c">pip-boy.jar</text><text x="32.064" y="6.012" class="c">-cp</text><text x="36.072" y="6.012" class="c">./out</text><text x="42.084" y="6.012" class="c">Hell</text></svg><svg x="7920"><use xlink:href="#a"/><use xlink:href="#b" x="46.996" y="4.317"/><use xlink:href="#14"/><use xlink:href="#16" y="2.171"/><use xlink:href="#19" y="4.342"/></svg><svg x="8000"><use xlink:href="#a"/><use xlink:href="#b" x="-.004" y="6.488"/><use xlink:href="#14"/><use xlink:href="#16" y="2.171"/><use xlink:href="#19" y="4.342"/></svg><svg x="8080"><use xlink:href="#a"/><use xlink:href="#b" x="-.004" y="8.659"/><use xlink:href="#14"/><use xlink:href="#16" y="2.171"/><use xlink:href="#19" y="4.342"/><use xlink:href="#20" y="6.513"/></svg><svg x="8160"><use xlink:href="#a"/><use xlink:href="#b" x="9.996" y="8.659"/><use xlink:href="#14"/><use xlink:href="#16" y="2.171"/><use xlink:href="#19" y="4.342"/><use xlink:href="#20" y="6.513"/><use xlink:href="#1" y="8.684"/></svg><svg x="8240"><use xlink:href="#a"/><use xlink:href="#b" x="10.996" y="8.659"/><use xlink:href="#14"/><use xlink:href="#16" y="2.171"/><use xlink:href="#19" y="4.342"/><use xlink:href="#20" y="6.513"/><text y="10.354" class="c">bash-3.2$</text><text x="10.02" y="10.354" class="c">e</text></svg><svg x="8320"><use xlink:href="#a"/><use xlink:href="#b" x="11.996" y="8.659"/><use xlink:href="#14"/><use xlink:href="#16" y="2.171"/><use xlink:href="#19" y="4.342"/><use xlink:href="#20" y="6.513"/><text y="10.354" class="c">bash-3.2$</text><text x="10.02" y="10.354" class="c">ex</text></svg><svg x="8400"><use xlink:href="#a"/><use xlink:href="#b" x="12.996" y="8.659"/><use xlink:href="#14"/><use xlink:href="#16" y="2.171"/><use xlink:href="#19" y="4.342"/><use xlink:href="#20" y="6.513"/><text y="10.354" class="c">bash-3.2$</text><text x="10.02" y="10.354" class="c">exi</text></svg><svg x="8480"><use xlink:href="#a"/><use xlink:href="#b" x="13.996" y="8.659"/><use xlink:href="#14"/><use xlink:href="#16" y="2.171"/><use xlink:href="#19" y="4.342"/><use xlink:href="#20" y="6.513"/><use xlink:href="#21" y="8.684"/></svg><svg x="8560"><use xlink:href="#a"/><use xlink:href="#b" x="-.004" y="10.83"/><use xlink:href="#14"/><use xlink:href="#16" y="2.171"/><use xlink:href="#19" y="4.342"/><use xlink:href="#20" y="6.513"/><use xlink:href="#21" y="8.684"/></svg></svg></g></g></svg></svg>